<svg t="1603184537983" class="icon" viewBox="0 0 1024 1024" version="1.1" xmlns="http://www.w3.org/2000/svg" p-id="3185" width="200" height="200"><path d="M790.528 538.112 233.472 538.112c-16.384 0-29.184-13.312-29.184-29.184s13.312-29.184 29.184-29.184l556.544 0c16.384 0 29.184 13.312 29.184 29.184S806.4 538.112 790.528 538.112z" p-id="3186"></path><path d="M848.896 316.928c-16.384 0-29.184-13.312-29.184-29.184L819.712 220.672c0-8.192-6.656-14.848-14.848-14.848l-163.84 0c-16.384 0-29.184-13.312-29.184-29.184 0-16.384 13.312-29.184 29.184-29.184l163.84 0c40.448 0 73.216 32.768 73.216 73.216l0 67.072C878.08 304.128 865.28 316.928 848.896 316.928z" p-id="3187"></path><path d="M804.864 876.544l-163.84 0c-16.384 0-29.184-13.312-29.184-29.184s13.312-29.184 29.184-29.184l163.84 0c8.192 0 14.848-6.656 14.848-14.848l0-149.504c0-16.384 13.312-29.184 29.184-29.184s29.184 13.312 29.184 29.184l0 149.504C878.08 843.264 845.312 876.544 804.864 876.544z" p-id="3188"></path><path d="M368.128 876.544 219.136 876.544c-40.448 0-73.216-32.768-73.216-73.216l0-149.504c0-16.384 13.312-29.184 29.184-29.184s29.184 13.312 29.184 29.184l0 149.504c0 8.192 6.656 14.848 14.848 14.848l148.992 0c16.384 0 29.184 13.312 29.184 29.184S384 876.544 368.128 876.544z" p-id="3189"></path><path d="M175.104 390.144c-16.384 0-29.184-13.312-29.184-29.184L145.92 220.672c0-40.448 32.768-73.216 73.216-73.216l148.992 0c16.384 0 29.184 13.312 29.184 29.184 0 16.384-13.312 29.184-29.184 29.184L219.136 205.824c-8.192 0-14.848 6.656-14.848 14.848l0 140.288C204.288 377.344 190.976 390.144 175.104 390.144z" p-id="3190"></path></svg>